<svg width="73" height="52" viewBox="0 0 73 52" fill="none" xmlns="http://www.w3.org/2000/svg">
<rect width="73" height="52" fill="#1E1E1E"/>
<g id="Landing Page Design">
<rect width="1440" height="3811" transform="translate(-165 -1776)" fill="white"/>
<g id="Rectangle 11">
<mask id="path-1-inside-1_101_682" fill="white">
<path d="M-165 -253C-165 -301.601 -125.601 -341 -77 -341H1187C1235.6 -341 1275 -301.601 1275 -253V1867H-165V-253Z"/>
</mask>
<path d="M-165 -253C-165 -301.601 -125.601 -341 -77 -341H1187C1235.6 -341 1275 -301.601 1275 -253V1867H-165V-253Z" fill="#F7F8F8"/>
<path d="M-165 -253C-165 -302.706 -124.706 -343 -75 -343H1185C1234.71 -343 1275 -302.706 1275 -253C1275 -300.496 1235.6 -339 1187 -339H-77C-125.601 -339 -165 -300.496 -165 -253ZM1275 1867H-165H1275ZM-165 1867V-341V1867ZM1275 -341V1867V-341Z" fill="#1DD100" mask="url(#path-1-inside-1_101_682)"/>
</g>
<g id="Group 50">
<rect id="Rectangle 8" x="-30" y="-42.1907" width="1170" height="418" rx="24" fill="white"/>
<g id="Group 36">
<g id="Group 35">
<g id="bus-logo">
<path id="Vector" d="M8.85714 42.9522C8.85714 44.7708 9.57959 46.515 10.8656 47.8009C12.1515 49.0869 13.8957 49.8093 15.7143 49.8093C17.5329 49.8093 19.2771 49.0869 20.563 47.8009C21.849 46.515 22.5714 44.7708 22.5714 42.9522M8.85714 42.9522C8.85714 41.1336 9.57959 39.3894 10.8656 38.1035C12.1515 36.8175 13.8957 36.095 15.7143 36.095C17.5329 36.095 19.2771 36.8175 20.563 38.1035C21.849 39.3894 22.5714 41.1336 22.5714 42.9522M8.85714 42.9522H2V5.2379C2 4.32858 2.36122 3.45651 3.00421 2.81353C3.64719 2.17055 4.51926 1.80933 5.42857 1.80933H53.4286C57.9751 1.80933 62.3355 4.33789 65.5504 8.83876C68.7653 13.3396 70.5714 19.4441 70.5714 25.8093M22.5714 42.9522H50M50 42.9522C50 44.7708 50.7224 46.515 52.0084 47.8009C53.2944 49.0869 55.0385 49.8093 56.8571 49.8093C58.6758 49.8093 60.4199 49.0869 61.7059 47.8009C62.9918 46.515 63.7143 44.7708 63.7143 42.9522M50 42.9522C50 41.1336 50.7224 39.3894 52.0084 38.1035C53.2944 36.8175 55.0385 36.095 56.8571 36.095C58.6758 36.095 60.4199 36.8175 61.7059 38.1035C62.9918 39.3894 63.7143 41.1336 63.7143 42.9522M63.7143 42.9522H70.5714V25.8093M70.5714 25.8093H55.1429L50 1.80933M2 18.9522H53.4286M19.1429 1.80933V18.9522M36.2857 1.80933V18.9522" stroke="#030712" stroke-width="3" stroke-linecap="round" stroke-linejoin="round"/>
</g>
</g>
</g>
</g>
</g>
</svg>
